ACLR_SUBJECT03_HOPP01_kinetics.mot
version=1
nRows=24
nColumns=19
inDegrees=yes
endheader
time	ground_force_vx	ground_force_vy	ground_force_vz	ground_force_px	ground_force_py	ground_force_pz	1_ground_force_vx	1_ground_force_vy	1_ground_force_vz	1_ground_force_px	1_ground_force_py	1_ground_force_pz	ground_torque_x	ground_torque_y	ground_torque_z	1_ground_torque_x	1_ground_torque_y	1_ground_torque_z
      2.25000000	     -6.45932245	    682.04248047	     -3.88348866	      1.77057946	      0.00000000	     -0.04650056	      0.00000000	      0.00000000	      0.00000000	      1.57507670	      0.00000000	     -0.26034528	      0.00000000	      0.10558034	      0.00000000	      0.00000000	      0.00000000	      0.00000000
      2.25041676	     -6.30237913	    682.31817627	     -3.82081103	      1.77050042	      0.00000000	     -0.04650798	      0.00000000	      0.00000000	      0.00000000	      1.57507670	      0.00000000	     -0.26034528	      0.00000000	      0.08699515	      0.00000000	      0.00000000	      0.00000000	      0.00000000
      2.25083327	     -6.14316511	    682.59368896	     -3.75606823	      1.77042031	      0.00000000	     -0.04651531	      0.00000000	      0.00000000	      0.00000000	      1.57507670	      0.00000000	     -0.26034528	      0.00000000	      0.06806394	     -0.00000000	      0.00000000	      0.00000000	      0.00000000
      2.25125003	     -5.98169041	    682.86907959	     -3.68930531	      1.77033901	      0.00000000	     -0.04652252	      0.00000000	      0.00000000	      0.00000000	      1.57507670	      0.00000000	     -0.26034528	     -0.00000000	      0.04878289	      0.00000000	      0.00000000	      0.00000000	      0.00000000
      2.25166678	     -5.81796503	    683.14428711	     -3.62057066	      1.77025676	      0.00000000	     -0.04652961	      0.00000000	      0.00000000	      0.00000000	      1.57507670	      0.00000000	     -0.26034528	     -0.00000000	      0.02914847	      0.00000000	      0.00000000	      0.00000000	      0.00000000
      2.25208330	     -5.65200233	    683.41931152	     -3.54991412	      1.77017343	      0.00000000	     -0.04653657	      0.00000000	      0.00000000	      0.00000000	      1.57507670	      0.00000000	     -0.26034528	      0.00000000	      0.00915739	      0.00000000	      0.00000000	      0.00000000	      0.00000000
      2.25250006	     -5.48381805	    683.69403076	     -3.47738934	      1.77008915	      0.00000000	     -0.04654339	      0.00000000	      0.00000000	      0.00000000	      1.57507670	      0.00000000	     -0.26034528	     -0.00000000	     -0.01119339	      0.00000000	      0.00000000	      0.00000000	      0.00000000
      2.25291657	     -5.31342983	    683.96850586	     -3.40305281	      1.77000391	      0.00000000	     -0.04655004	      0.00000000	      0.00000000	      0.00000000	      1.57507670	      0.00000000	     -0.26034528	     -0.00000000	     -0.03190660	      0.00000000	      0.00000000	      0.00000000	      0.00000000
      2.25333333	     -5.14085770	    684.24273682	     -3.32696271	      1.76991761	      0.00000000	     -0.04655653	      0.00000000	      0.00000000	      0.00000000	      1.57507670	      0.00000000	     -0.26034528	      0.00000000	     -0.05298473	     -0.00000000	      0.00000000	      0.00000000	      0.00000000
      2.25375009	     -4.96612358	    684.51654053	     -3.24918151	      1.76983047	      0.00000000	     -0.04656284	      0.00000000	      0.00000000	      0.00000000	      1.57507670	      0.00000000	     -0.26034528	     -0.00000000	     -0.07442996	      0.00000000	      0.00000000	      0.00000000	      0.00000000
      2.25416660	     -4.78925180	    684.79003906	     -3.16977358	      1.76974249	      0.00000000	     -0.04656897	      0.00000000	      0.00000000	      0.00000000	      1.57507670	      0.00000000	     -0.26034528	      0.00000000	     -0.09624420	      0.00000000	      0.00000000	      0.00000000	      0.00000000
      2.25458336	     -4.61026955	    685.06311035	     -3.08880615	      1.76965356	      0.00000000	     -0.04657489	      0.00000000	      0.00000000	      0.00000000	      1.57507670	      0.00000000	     -0.26034528	     -0.00000000	     -0.11842906	     -0.00000000	      0.00000000	      0.00000000	      0.00000000
      2.25500011	     -4.42920589	    685.33575439	     -3.00634956	      1.76956379	      0.00000000	     -0.04658060	      0.00000000	      0.00000000	      0.00000000	      1.57507670	      0.00000000	     -0.26034528	     -0.00000000	     -0.14098585	      0.00000000	      0.00000000	      0.00000000	      0.00000000
      2.25541663	     -4.24609184	    685.60784912	     -2.92247677	      1.76947320	      0.00000000	     -0.04658609	      0.00000000	      0.00000000	      0.00000000	      1.57507670	      0.00000000	     -0.26034528	      0.00000000	     -0.16391557	     -0.00000000	      0.00000000	      0.00000000	      0.00000000
      2.25583339	     -4.06096220	    685.87945557	     -2.83726358	      1.76938188	      0.00000000	     -0.04659135	      0.00000000	      0.00000000	      0.00000000	      1.57507670	      0.00000000	     -0.26034528	      0.00000000	     -0.18721893	      0.00000000	      0.00000000	      0.00000000	      0.00000000
      2.25624990	     -3.87385225	    686.15051270	     -2.75078845	      1.76928973	      0.00000000	     -0.04659635	      0.00000000	      0.00000000	      0.00000000	      1.57507670	      0.00000000	     -0.26034528	      0.00000000	     -0.21089631	      0.00000000	      0.00000000	      0.00000000	      0.00000000
      2.25666666	     -3.68480158	    686.42095947	     -2.66313267	      1.76919687	      0.00000000	     -0.04660111	      0.00000000	      0.00000000	      0.00000000	      1.57507670	      0.00000000	     -0.26034528	     -0.00000000	     -0.23494779	      0.00000000	      0.00000000	      0.00000000	      0.00000000
      2.25708342	     -3.49385071	    686.69079590	     -2.57437968	      1.76910341	      0.00000000	     -0.04660559	      0.00000000	      0.00000000	      0.00000000	      1.57507670	      0.00000000	     -0.26034528	      0.00000000	     -0.25937310	      0.00000000	      0.00000000	      0.00000000	      0.00000000
      2.25749993	     -3.30104327	    686.95989990	     -2.48461652	      1.76900923	      0.00000000	     -0.04660980	      0.00000000	      0.00000000	      0.00000000	      1.57507670	      0.00000000	     -0.26034528	      0.00000000	     -0.28417170	     -0.00000000	      0.00000000	      0.00000000	      0.00000000
      2.25791669	     -3.10642505	    687.22833252	     -2.39393187	      1.76891446	      0.00000000	     -0.04661372	      0.00000000	      0.00000000	      0.00000000	      1.57507670	      0.00000000	     -0.26034528	      0.00000000	     -0.30934262	      0.00000000	      0.00000000	      0.00000000	      0.00000000
      2.25833344	     -2.91004491	    687.49591064	     -2.30241752	      1.76881909	      0.00000000	     -0.04661734	      0.00000000	      0.00000000	      0.00000000	      1.57507670	      0.00000000	     -0.26034528	      0.00000000	     -0.33488470	      0.00000000	      0.00000000	      0.00000000	      0.00000000
      2.25874996	     -2.71195292	    687.76269531	     -2.21016765	      1.76872325	      0.00000000	     -0.04662065	      0.00000000	      0.00000000	      0.00000000	      1.57507670	      0.00000000	     -0.26034528	      0.00000000	     -0.36079636	     -0.00000000	      0.00000000	      0.00000000	      0.00000000
      2.25916672	     -2.51220274	    688.02862549	     -2.11727881	      1.76862693	      0.00000000	     -0.04662364	      0.00000000	      0.00000000	      0.00000000	      1.57507670	      0.00000000	     -0.26034528	     -0.00000000	     -0.38707566	     -0.00000000	      0.00000000	      0.00000000	      0.00000000
      2.25958323	     -2.31084967	    688.29364014	     -2.02384973	      1.76853013	      0.00000000	     -0.04662630	      0.00000000	      0.00000000	      0.00000000	      1.57507670	      0.00000000	     -0.26034528	      0.00000000	     -0.41372040	      0.00000000	      0.00000000	      0.00000000	      0.00000000
